<?xml version="1.0" encoding="UTF-8"?>
<svg xmlns="http://www.w3.org/2000/svg" width="16px" height="16px" version="1.1" viewBox="0 0 16.16 16.16">
 <g >
  <g>
   <rect fill="#F0F0F0" width="16.16" height="16.16"/>
   <polygon fill="#D80027" points="0,9.6 6.57,9.6 6.57,16.16 9.6,16.16 9.6,9.6 16.16,9.6 16.16,6.57 9.6,6.57 9.6,0 6.57,0 6.57,6.57 0,6.57 "/>
   <g>
    <polygon fill="#0052B4" points="12.85,10.54 16.16,13.86 16.16,10.54 "/>
    <polygon fill="#0052B4" points="10.54,10.54 16.16,16.16 16.16,14.57 12.13,10.54 "/>
    <polygon fill="#0052B4" points="14.67,16.16 10.54,12.04 10.54,16.16 "/>
   </g>
   <polygon fill="#F0F0F0" points="10.54,10.54 16.16,16.16 16.16,14.57 12.13,10.54 "/>
   <polygon fill="#D80027" points="10.54,10.54 16.16,16.16 16.16,14.57 12.13,10.54 "/>
   <g>
    <polygon fill="#0052B4" points="2.54,10.54 0,13.08 0,10.54 "/>
    <polygon fill="#0052B4" points="5.62,11.26 5.62,16.16 0.72,16.16 "/>
   </g>
   <polygon fill="#D80027" points="4.03,10.54 0,14.57 0,16.16 0,16.16 5.62,10.54 "/>
   <g>
    <polygon fill="#0052B4" points="3.32,5.62 0,2.3 0,5.62 "/>
    <polygon fill="#0052B4" points="5.62,5.62 0,0 0,1.59 4.03,5.62 "/>
    <polygon fill="#0052B4" points="1.5,0 5.62,4.12 5.62,0 "/>
   </g>
   <polygon fill="#F0F0F0" points="5.62,5.62 0,0 0,1.59 4.03,5.62 "/>
   <polygon fill="#D80027" points="5.62,5.62 0,0 0,1.59 4.03,5.62 "/>
   <g>
    <polygon fill="#0052B4" points="13.63,5.62 16.16,3.09 16.16,5.62 "/>
    <polygon fill="#0052B4" points="10.54,4.91 10.54,0 15.45,0 "/>
   </g>
   <polygon fill="#D80027" points="12.13,5.62 16.16,1.59 16.16,0 16.16,0 10.54,5.62 "/>
  </g>
 </g>
</svg>
